<?xml version="1.0" standalone="no"?>
<!DOCTYPE svg PUBLIC "-//W3C//DTD SVG 20010904//EN"
 "http://www.w3.org/TR/2001/REC-SVG-20010904/DTD/svg10.dtd">
<svg version="1.0" xmlns="http://www.w3.org/2000/svg"
 width="1150.000000pt" height="1150.000000pt" viewBox="0 0 1150.000000 1150.000000"
 preserveAspectRatio="xMidYMid meet">
<metadata>
Created by potrace 1.11, written by Peter Selinger 2001-2013
</metadata>
<g transform="translate(0.000000,1150.000000) scale(0.100000,-0.100000)"
fill="#000000" stroke="none">
<path d="M827 11484 c-397 -72 -712 -373 -803 -769 -18 -77 -19 -244 -19
-4965 0 -4721 1 -4888 19 -4965 87 -379 382 -674 761 -761 77 -18 244 -19
4965 -19 4721 0 4888 1 4965 19 379 87 674 382 761 761 18 77 19 244 19 4965
0 4721 -1 4888 -19 4965 -86 372 -363 655 -741 758 l-80 22 -4875 2 c-4151 1
-4887 -1 -4953 -13z m3533 -349 c0 -9 50 -452 55 -492 l6 -43 405 0 404 0 0
260 0 260 525 0 525 0 0 -260 0 -260 404 0 405 0 6 43 c5 40 55 483 55 492 0
3 214 5 476 5 448 0 475 -1 470 -17 -3 -10 -84 -394 -181 -853 -97 -459 -179
-845 -182 -857 l-5 -23 -1973 0 -1973 0 -6 23 c-3 13 -84 396 -181 853 -96
456 -177 839 -180 852 l-5 22 475 0 c261 0 475 -2 475 -5z m3802 -1987 c73
-34 142 -103 176 -176 26 -55 27 -64 27 -222 0 -158 -1 -167 -27 -222 -34 -73
-103 -142 -176 -176 l-57 -27 -2355 0 -2355 0 -55 26 c-82 39 -135 90 -172
167 l-33 67 0 165 c0 158 1 167 27 222 45 96 138 174 235 197 22 5 1033 8
2373 8 l2335 -2 57 -27z m-94 -1216 l-3 -197 -33 -67 c-38 -77 -92 -130 -171
-167 l-56 -26 -2050 0 -2050 0 -56 26 c-79 37 -133 90 -171 167 l-33 66 -3
198 -4 198 2317 0 2317 0 -4 -198z m-798 -707 c0 -13 531 -4523 535 -4552 l6
-33 -2061 0 -2062 0 6 38 c3 20 123 1034 266 2252 143 1218 263 2234 266 2258
l6 42 1519 0 c836 0 1519 -2 1519 -5z m684 -4879 c53 -228 258 -386 498 -386
l78 0 0 -64 0 -64 233 -4 c215 -4 237 -6 292 -28 150 -58 248 -156 305 -305
21 -54 24 -80 28 -267 l4 -208 41 -11 c74 -20 160 -70 218 -128 103 -103 148
-230 149 -413 l0 -98 -4055 0 -4055 0 0 103 c0 120 18 204 61 289 58 114 186
217 312 249 l45 11 4 206 c4 180 8 215 26 266 54 146 161 254 308 308 53 19
84 22 292 26 l232 4 0 64 0 64 70 0 c38 0 93 5 122 11 189 40 349 201 388 392
l11 57 2188 0 2187 0 18 -74z"/>
</g>
</svg>
